<?xml version="1.0" encoding="utf-8"?>
<!-- Generator: Adobe Illustrator 25.2.0, SVG Export Plug-In . SVG Version: 6.00 Build 0)  -->
<svg version="1.1" id="Calque_1" xmlns="http://www.w3.org/2000/svg" xmlns:xlink="http://www.w3.org/1999/xlink" x="0px" y="0px"
	 viewBox="0 0 3871 2367" style="enable-background:new 0 0 3871 2367;" xml:space="preserve">
<style type="text/css">
	.st0{fill-rule:evenodd;clip-rule:evenodd;fill:#FAC8AF;fill-opacity:0.9;}
	.st1{fill-rule:evenodd;clip-rule:evenodd;fill:#FFFFFF;fill-opacity:0.9;}
	.st2{fill-rule:evenodd;clip-rule:evenodd;fill:#FF5678;}
	.st3{fill-rule:evenodd;clip-rule:evenodd;}
</style>
<desc>Created with Sketch.</desc>
<g id="composition-23">
	<path id="Path_1_" class="st0" d="M1057.7,270.7c466.5-22.2,1092.7,53.7,1615.8,277c524,223.6,944,594.3,1111.8,915.4
		c167.8,321.1,84.5,592.5-247.6,701.8c-333,108.9-915,56-1562.7-87.4c-647.9-143.1-1359.6-376.4-1702.5-648.5
		S-43.8,846.2,121.6,630.3C287.9,414.7,592,293.6,1057.7,270.7z"/>
	<path id="Path" class="st1" d="M2640.1,314.3c279.7,159,537.6,425.5,575.2,728.7c37.8,303.6-144.9,643.4-410.3,866.2
		s-612.8,329-915.9,262.9c-303.2-66.6-562.4-305.5-757-613.9c-195-308.3-324.6-685.2-209.4-947.3c115.2-262,475.3-408.7,805.8-457
		C2059.1,106,2360.1,155.9,2640.1,314.3z"/>
	<g id="Illustrations_x2F_reading-side" transform="translate(1018.000000, 991.000000)">
		<path id="Accent" class="st2" d="M1465.1,622.1c-9.5,11-23.6,19.2-34.4,29.3c-11.3,10.6-23.6,19.8-34.9,30.3
			c-49.8-60.8-118-98.1-177.1-148.6c-28-23.9-48.6-56.4-63.8-89.7c-7.7-17.1-13.5-34.7-17.9-52.9c-2-8.2-4-16.4-5.3-24.7
			c-1.6-10.1-2-10.9-8.8-18.8c-2.9-3.4-8.6-13.3-14.3-12.2c-4.8,0.9-13.6,15.6-16.7,19.2c-14.6,17.4-28.8,35.4-44.2,52.1
			c-23.6,25.6-45.1,50.8-66.9,78c-44.8,55.6-93.1,107.9-141.9,160.1c-3.6,3.9-12,15.2-17.2,16.8c-6.3,1.9-16.6-5.9-22.9-10.2
			c-15.4-10.5-27.5-23.4-40.6-36.3c-25.6-25.3-43-60.8-54.6-94.5c-7-20.2-11.5-41.2-18.7-61.3c-3-8.4-9.8-18.7-6.4-26
			c1-2.2,7.6-8,9.9-8.4c2.7-0.5,7.3,3.2,8.2,3c9.1-2.5,4-12,9.4-17.1c3.1-2.9,18.6-2.5,23.2-4.1c17-5.8,32.2-16.9,48.3-23.6
			c67.2-27.8,135.2-54.7,193.2-100.1c15-11.8,25-20.6,43-28.2c18.1-7.7,36.4-14.5,54.9-21.2c16.3-5.9,32.7-11.4,49.6-15.7
			c18.2-4.6,44.1-10.4,62.3-4.5c35.8,11.6,47.3,41.1,61.6,72.2c19.3,42.1,42.6,81.9,67.9,120.6
			C1358.5,480.1,1417.6,546.9,1465.1,622.1"/>
		<g id="ink" transform="translate(62.719727, 159.458333)">
			<path id="ink-layer" class="st3" d="M324.6-196.2c-2-1-17.3,5.3-19.9,6.2c-10.3,3.8-20,10.2-29.7,15.3
				c7.4,9.1,14.9,18.1,22.3,27.2C304.6-165.3,314-180.1,324.6-196.2L324.6-196.2z M329.7-84.8c-2.5,0.3,18.8,51.7,21.3,57.4
				c9.1,21,18.6,41.7,27.8,62.7c8.9,20.3,20.2,38.9,31.6,57.9c9.7,16.2,19.8,41.3,34.5,53.3c-9.3-41.2-8.1-88.5-34.7-123.1
				C382.7-12.5,355.4-47.5,329.7-84.8L329.7-84.8z M1402.4,464.4c-41.3-65.3-92.9-123.1-135.9-187.3
				c-24.1-35.9-47.5-72.3-67.8-110.5c-14.7-27.8-23.9-67.5-46.7-88.8c-10-9.4-20.8-18.5-34.2-22.7c-18.4-5.7-43.8-0.1-62.3,4.5
				c-34.5,8.5-68.2,21.6-100.9,35.4c-33.2,14-61.4,39.1-91.4,59.3c-32.1,21.7-66.9,37.4-102.9,51.3c-31.3,12-59.2,29.3-90.4,41.4
				c-6.2,2.4-18.9,2.1-24.1,5.2c-5.6,3.4-3.4,13.4-10.2,17.1c-3.1,1.7-4.1-4.4-6.5-4.3c-2.9,0.1-5.5,3.5-8.3,5.7
				c-11.3,8.7-4.4,14.6,0.1,26.6c14.6,39.2,22.5,79.1,43,116.1c16.9,30.4,41,57.7,69.5,77.8c4.3,3.1,18.4,14.9,23.5,14.1
				c4.6-0.7,13.9-12.9,17-16.2c14.3-15,27.4-31.1,41.7-46.1c22.1-23.2,43.4-47,64.9-70.5c24.9-27.3,47-58.2,69.4-87.4
				c10.3-13.4,23.6-24.3,35.1-36.8c15.4-16.7,29.6-34.7,44.3-52.1c4.4-5.3,11.8-18.8,18.7-18.6c4.8,0.1,13.3,11.5,15.9,15
				c9.4,13.2,9.3,37.1,14,53.6c11.4,40.3,31.9,79.6,60,110.7c28,30.9,63.8,52.9,96.9,77.7c35.9,26.9,69.8,54.4,98.3,89.2
				c11.3-10.4,23.6-19.7,34.9-30.3C1378.8,483.6,1392.9,475.4,1402.4,464.4L1402.4,464.4z M871.3,649.2c8,0.1,21.6,5,28.8,2
				c-21.3-23.5-40.8-43.7-67.8-61c-27.9-17.9-55.8-35.7-82.9-54.8c-54.7-38.5-94.9-84.1-117.8-148.2c-5.9-16.5-9.8-33.8-14.1-50.8
				c-2.3-9.1-6.9-51.9-14.8-55.6c-4.6-2.2-39.6,22.4-45.1,25.4c-12.9,7.2-25.9,12.7-39.3,18.3c-28.8,12-58.4,21.2-89,28.9
				c-36.6,9.2-61.5-6-84.2-34.8c-25.7-32.6-47.1-69.4-70.6-103.7c-10.7-15.6-19.5-31.1-27.4-48.3c-5.2-11.2-25.7-41.6-18.6-53.6
				c20.2,15.4,27.5,46,41.2,66.6c17.2,25.7,36.5,49.9,53.7,75.5c14.5,21.6,29.3,47.7,50.7,63.2c18.8,13.6,36.7,9.4,57,3.3
				c24.6-7.4,50.1-11.1,74.1-20.3c26.1-10,50.7-24.1,76.2-35.6c11.9-5.4,26.1-8.4,37.2-15.1c9.6-5.8,8.2-8.8,8.9-21.1
				c0.8-14.3,1.8-28.7,2.4-43c0.4-9.6-4.8-22.7-1.3-29.9c-28.9,5-57.1,11.7-85.8,17.6c-15.7,3.2-30.8,7.3-46.7,9.8
				c-6,1-14.3,0.9-19.7,3.6c-4.3-1.2-6.5-0.5-6.6,2.4c-0.2,1.5-0.5,3-1,4.5c-8.9,4-14-4.6-21.7-12.9c-9.5-10.2-16.6-21.7-23.5-33.8
				c-15.5-26.9-33.5-52.1-47.8-79.7C361.3,40,349.4,9.9,337-19.3c-11.4-26.8-18.7-55.8-31.3-81.9c-5.6-11.7-12.7-21.3-21.1-31.2
				c-6.9-8.1-17.4-25.7-27.7-29.4c-2.7-1-9.8,0.7-12.9,0.5c-6.1-0.4-11.6-2.7-17.9-2.2c-13.6,1.1-28.4,9.7-39.3,17.2
				c7,6.3,24.6,13.9,12,25.1c-12.2,10.9-19-8.7-23.7-17.3c-22,18.1-18.8,43-21.4,68.5c-1.3,13.3-4.8,26.5-7.1,39.6
				c-1.6,9.5-0.5,19.2-0.9,28.9c-1.2,24.5-3.6,48-3.5,72.2c0.1,25.8,1.9,50.8,4,76.4c3.5,43.2,11.5,86.4,18.3,129.2
				c3.8,24.1,9.1,47.5,14.2,71.2c5.8,26.9,16.5,52.4,22.6,79.2c6.1-7.8,10.7-7.8,20.7-6.8c7.6,0.8,12.8-1,12.3,9.6
				c-0.3,6.9-6.3,12.1-13.1,13.3c-8.7,1.6-11.7-2.8-16.2-9.4c-1.1,12.5,7.4,25.6,10.7,37.9c3.2,11.6,5.2,23,10.6,34.1
				c5.2,10.8,9.6,21.5,14.8,32.3c2.4,4.9,4.7,10,7.1,14.9c1.2,2.5,2.7,5.9,4.5,8c4.3,4.9,3.6,2.5,8.7,5.3c11,6.1,6.9,4.6,7.1,17.2
				c0.3,12.5,6.6,21.6,16.9,28.6c21.7,14.9,43.2,19,67.9,26.5c23,7,47.3,13,71.7,12.9c29.9-0.2,59.3-4.1,89.2-4.5
				c32.9-0.4,66.2-0.3,99.1,0.9c13.5,0.5,26.1,1.1,39.2,4.5c15.2,4,29.9,2.4,45.5,1.8c33.4-1.3,67.9-3.9,100.9-4.1
				C822.5,649.4,847.5,647.8,871.3,649.2L871.3,649.2z M1737,662.2c5.9,3.1,19.2,1.8,25.2,1c10.5-1.5,11.6-5.7,18.3-15.1
				c11.5-16.1,20.8-31.6,27.6-50.3c12.9-35.8,18.2-72.4,23.9-109.8c6.3-41.6-5.2-84.7-9.3-126c-0.9-9.5-2.2-18.9-3.7-28.3
				c-0.9-5.6-1.1-24.7-4.8-29.6c-7.1-9.4-40.2-1.8-53.2-1c-36.3,2.4-72.8,2.9-109.1,3.3c-19.3,0.2-38.8,1-57.9,1.2
				c-8.8,0.1-17.4-0.4-26.2-1.2c-3-0.3-5.8-1-8.8-1.1c-10.2-0.6-9.4-2-12,7c-4.6,15.8-1.1,35.9-2.3,52.3
				c-1.6,21.9-2.5,44.1-2.1,66.1c0.4,20.3-0.3,40.5,0.4,60.8c0.3,8.4,1.2,15.3,3.5,23.3c2.5,9.1,5.3,30.3,11.5,36.6
				c0.7,0.7,6-1,7.4,0.8c2.2,2.7,1.8,8.6,3.3,10.3c4.8,5.7,14.8,6.2,22.1,8.8c19.9,7.1,38.1,14.8,56.8,24.3
				c16.7,8.5,43.7,15.8,53.8,32.6c4.6,7.7,5.2,17.9,9.5,25.9c4.8,9.1-4.8,4.3,7,8C1723.1,663.8,1731.6,662.2,1737,662.2L1737,662.2z
				 M-27.2,559.5c-1.5,21-13.3,40.9-17.4,61.5c-1.9,9.6-5.2,19.1-7.4,28.7c-2.2,9.2-10,20.1-9.2,29.2c28.9-10.3,58.2-12.9,88.4-15.7
				c28.6-2.6,58.9-3.7,87.3-3.7c28.9,0,59.9-2.8,89.7-3.3c31.2-0.5,62.8-1.3,93.5-4.5c-16.1-11.9-36.1-23.1-48-39.6
				c-12.9-18-19.6-40.5-30.9-59.5c-22.8-38.1-37.2-85.3-49.1-128.1c-24.1-86.3-51-171.1-57.5-260.7c-12.3,6.3-22.1,30.8-28.3,43
				c-7.9,15.6-12,32.5-17.1,49.1c-10.6,34.1-17.9,69.5-30.8,103.3C11,424-4.9,493.7-27.2,559.5L-27.2,559.5z M1541.7,56.3
				c5.3,38.6,16.6,77.7,17,116.8c0.1,8.6-1.4,18.1,0.4,26.6c1.9,9.1,8.1,17.1,11.7,25.7c5.7,13.7,20.2,41.6,6.2,53.2
				c-0.3-11-10.3-24.9-15.4-34.5c-7.6-14.5-17.7-27.7-25.9-41.8c-17.3-29.5-36.7-58.4-59-84.5c-21.7-25.4-46.8-47.9-69.8-72
				c-6.9-7.3-62.5-77.1-64.7-76.1c17.2,66.4,46.5,124.2,86.6,179.9c19.7,27.3,43.2,45.2,67.2,68.3c19.9,19.2,57.5,39.8,50.6,71.3
				c31.1-3,62.1-7.8,93.5-7.8c-5.2-39.8-9.1-78.9-18.4-118c-10.5-44.4-17.6-90.2-26.4-135c-9-45.7-24.4-90-33.9-135.7
				c-9.1-43.7-17-87.4-23.7-131.6c-5.5,24.5-3.5,51.4-5.5,76.4c-2,25.5-1.8,50.6-1.1,76.3C1532.3-38.5,1537.4,8.7,1541.7,56.3
				L1541.7,56.3z M1676.6-171.2c0.2-20.4,4.1-40.6,5.4-60.9c0.4-6.3,6.6-48.9,0.8-51.1c-4.8,10.4-5.9,23.7-10.2,34.7
				c-4.3,10.9-10.1,21.3-14.3,32.3c-9,23.8-12.1,50.7-13.1,76c-2.2,57.2-3.3,114.3,0.5,171.6c1.6,24.5,2.9,49.1,2.5,73.7
				c-0.5,27-4.6,50.5,0.4,77.4c5,26.6,8.1,53,9.8,80c1.2,18.9,1.6,17.6,19.7,16.2c13-1,26.2,0.1,39.2-0.5
				c-6.1-73.7-7.1-147.6-16.8-221.1c-5-37.5-5.1-75.5-11.3-112.8c-3.1-18.5-8.2-36.7-11.2-55.3
				C1674.8-131,1676.3-151.1,1676.6-171.2L1676.6-171.2z M356.5-217.6c34.8,3,71.7,13.4,107.3,6.5c-5.9-2.4-21.2-5.7-14.3-15
				c7-9.5,18.9,2.6,25.9,1.3c4.3-0.8,13.9-18.8,16.5-22.6c6-8.5,6.8-10,17.7-12.2c10.5-2.1,12.9,0.2,14.3-10.3
				c1.5-12-2.6-25.6-2.2-37.9c0.9-26.5,9.4-49.8,17.4-74.7c-33.8,7.4-66.9,16.1-101.5,20.8c-14.8,2-37.8,6.7-51.2-3.3
				c-3.5-2.6-2.9-6.1-5.8-9.2c-4.8-5.1-13.7-10.3-20.5-11.8c-41.8-8.9-45.9,50.7-25,73.1c5.3,5.6,12.6,8.4,17.9,13.5
				c7.2,6.8,7.8,14,8.8,24.5c2,19.6-0.7,39.2-9.1,57.1L356.5-217.6z M864.3,64c12.4,2.3,25.2,1.8,37.6,3.8
				c4.4,0.7,17.6,3.2,21.5,0.6c5.9-3.9,8-18.3,10.8-25c4.9-11.8,11.9-22.1,16.5-34.1c19.1-49.1,37-98.3,60.2-145.7
				c-8.9-2.3-15.7-2.4-24.6-3.6c-9.3-1.2-17.8-6.7-26.7-9.1c-8.4-2.2-17.3-1.7-25.7-4.3c-4.6-1.4-8.6-4.6-13.1-5.8
				c-7.2-1.8-15.7-2.8-20,1.9c-4.4,4.9-6,18.3-8.4,24.6c-6.4,16.8-13.8,33-19.2,50.2c-4.8,15.5-9.4,30.8-13.7,46.4
				C855.1-19.6,846.2-6,840.8,9.7c-4.1,12-8,24.3-8.6,37.1c-0.6,12.5-2.4,13.3,10.1,15.3C848.6,63.1,858.4,66.8,864.3,64L864.3,64z
				 M1677.1,648.2c3.2,1.5,6.3,1.3,9.1-0.6c-27.9-11.8-55-28.1-84.1-36.2c-27.3-7.6-53.8-16.6-80.1-26
				c-21.4-7.6-40.6-13.5-59.9-26.8c-11.7-8.1-22.1-17.2-30.2-29.1c-9-13.2-11-31.9-20.7-43.8c-13.1,14.4-28.5,25.3-44,36.7
				c-5.4,4-18.2,12.6-20.1,18.7c-2.3,7.7,3.9,15.1,7,22.9c7.9,20,11.7,40.1,16,60.9c1.7,8.3,5.4,20.9,12.3,24.4
				c6.2,3.2,24.3,0.9,32.1,0.3c40.5-3.1,80.4-6.2,121.2-3.4C1581.7,649.4,1631.1,651.6,1677.1,648.2L1677.1,648.2z M1758.1,276.9
				c7.4,0,14.6-0.9,21.9-0.9c-4.2-19.8,5.7-45.4,9.2-65.1c3.9-22.1,6.9-44.9,9.5-67.2c5.5-46.9,8-93.2,8.1-140.5
				c0.1-45.7,8.4-87.5,20.1-131.4c12.5-47.2,33-89.6,50-135.2c-18.6,9.8-28.9,32.8-38.7,50.4c-12.4,22.2-20.6,46.8-25.6,71.8
				c-9.7,48.1-20.4,96.4-31.6,144.5c-11.7,50-18.6,100.5-32,150.2c-6.5,24.2-15.4,54-15.9,78.9c-0.2,10.3-3.3,31.9,1.4,40.9
				C1738.8,281.7,1748.5,277.8,1758.1,276.9L1758.1,276.9z M645.8,214.8c-0.4,5.1-0.8,10-1.7,15.1c10.2-0.1,23.1-10.7,31.9-15.4
				c10.7-5.8,21.3-12.2,31.8-18c20.1-11.2,43-18.6,64.5-27.9c24.7-10.6,47.4-23.4,71-36.2c8.3-4.5,67.5-30.2,66.5-37.2
				c-13-0.4-26-0.9-39.1-1.3c-11.2-0.4-28.4,2.2-39.1-1.3c-5.9-1.9-12.4-8.8-14.6-14.3c-2.2-5.4,2.7-30.2-0.1-31.8
				c-14.6,14.9-23.7,34.6-36.8,50.7c-14.4,17.7-33,28.1-53.5,37.5c-22.6,10.4-46.1,18.5-69.2,27.4c-9.8,3.8-9.6,5.9-10.4,16.6
				C646.1,190.7,646.2,202.8,645.8,214.8L645.8,214.8z M1822.2,664.6c24.5,2.6,49.7,1.1,74.4,3.2c9,0.7,21.5,1.9,12.4,13.9
				c-5.7,7.6-24,5.2-32.2,5.7c-22.2,1.4-45.8,0.7-68.1,0.3c-4.7-0.1-9.9-1.5-14.6-1.1c-5.5,0.4-12,4.3-17,4.3
				c-3.1,0-4.2-3.3-6.8-3.6c-5.8-0.6-11.6-1.1-17.4-1.1c-88.1,0-175-1.8-262.9-1.8c-42,0-84.7-0.8-126.7-2.7
				c-8.8-0.4-59.1,1.4-57.7-14.5c0.7-8.2,17.1-9.3,23.1-10.2c4.4-0.6,9-0.5,13.5-0.8c11.8-0.6,17,2.2,14.5-10.7
				c-9.4-49-26.4-89.4-62.5-124.7c-29.6-28.8-65.2-54.9-98.6-79c-40.7-29.2-73.6-59.9-97.8-104.6c-14.1-26.1-25.9-52.8-33.1-81.6
				c-2.6-10.4-2.7-22.2-5.9-32.2c-2.5-7.7-8.1-13.1-11.4-21.1c-40.5,67.6-94.1,124.1-143.2,185c-23.5,29.1-50.3,56.7-78.4,82.1
				c-8.3,7.5-16.1,15.4-23.9,23.4c-6.5,6.8-16.8,12.8-22.3,20.3c-5.3,7.2-4,6.9,4,12.6c10.6,7.6,22.3,13.8,33,21.2
				c17.2,11.8,36,21.7,51.4,35.9c16.6,15.3,31.2,33.1,45.7,50.4c9.7,11.5,22.4,26.3,24.8,40.9c0.8,4.8,3.9,16.7-0.2,20.3
				c-3.5,3-3.1,1.9-7.4,0c-5.6-2.4-7.3-7.9-14.2-10.6c-17.6-6.7-38.9-4.4-57.2-4.5c-18.3-0.1-36.8,2-55,1.9
				c-41.8-0.2-82.7,3.2-124.4,5c-44.4,1.9-89.2-2.7-133.5-2c-32.8,0.5-66.4-2-100-0.1c-17.3,0.9-34.3-1.2-51.2-1.5
				c-22.1-0.3-44.8,2.7-67.1,3.1c-36.6,0.7-72.7,0.7-109.5,1.6c-79.2,1.9-157.9,3.9-237.1,5.1c-10.6,0.2-22.1-0.2-32.6,1
				c-11.1,1.3-5.4,3.6-13,7.6c-21.3,11.2-16.4-30.2-15.9-38.4c2.7-43.6,13.8-86.4,27.1-127.8c12.6-39.3,22.9-80.4,33.6-120.5
				c11.7-43.9,27-86.1,40.8-129.5c14.2-44.6,25.8-90.9,51.5-130.4c5.9-9,11.9-18.7,21.4-24.4c10.6-6.4,11-2.6,11-14.3
				c0-11,0.7-25.6-1.9-36.1c-2.3-9.5-2-3.8-7.2-10.6c-4.3-5.5-8.8-9.3-11.8-16c-18.9,19.1-62.1,9-80.4-4.7
				C-17.9,31.3-34.9,2.9-41.1-24.2C-46.1-46-40-87.5-15.9-98c11.7-5.1,54.9-9,56.6-25.6c0.9-8.6-14.3-20.7-17.8-28
				c-6.5-13.7-12.7-31.9-14.5-46.9c-3.5-29.3,9.8-62,30.9-81.8c38.8-36.3,107.1-54.9,157.1-31.9c-10.6-40.3-16.9-75.1-11.6-117
				c4.6-36.1,25.9-56.3,55.2-74.3c50.1-30.7,118.1-42.8,175.4-33.9c13,2,25.5,6.4,37.5,9.8c17.5,5,38.4,3.4,55,11.5
				c12,5.9,21.1,17.7,31.6,25.6c12.3,9.2,22.5,22.9,31,35.6c18.2,27.2,11.1,77.6-4.2,104.8c-3.3,5.8-7.3,10.8-12.7,14.8
				c-5.6,4.2-14.2,5.4-17.2,10.8c-7.4,13.8-0.3,43.7,0.7,58.6c1.2,17.3-7.6,30.3-27.2,31.7c-11.4,0.8-11.7-5.8-17.2,7.8
				c-3.5,8.8-6.7,18.4-11.8,26.4c-10.5,16.6-29.7,15-47.2,14.5c-20.3-0.5-40.2-3.7-60.5-5.7c5.4,17.1,20,30.5,29.2,45.7
				c12.4,20.7,19.8,37.8,21.8,61.9c1.5,18.5-1.8,33.1-14.4,46.9c-5.2,5.7-9.9,6-8.6,12.6c0.8,4,7.7,10.6,10.2,13.8
				c6.5,8.5,14,16.2,19.7,25.3c22,34.8,28.5,87.8,28.5,128.3c0,1.9,1,5.8,0.2,7.7c-0.6,1.4-5.2,5.9-5.3,6.3
				c-0.9,5.2,4.2,14.1,12.1,15c8.4,0.9,23.7-6.1,31.5-8.3c12.5-3.7,25.2-6.4,37.6-10.2c20.1-6.1,40.1-10.9,60.5-15.7
				c9.2-2.2,18.5-4,27.7-6c10.5-2.3,15.4-6.7,20.9,4c4.7,9.2,1.8,10.9,13.1,6.2c11.2-4.6,22.2-10.3,33.1-15.5
				c19.3-9.2,42.3-17.3,59-30.9c27.8-22.6,38.1-58.5,64.7-82.5c7.4-6.7,11.8-6.8,16.5-16c5-9.9,7.6-22.6,10.2-33.2
				c4.6-18.6,7.9-37.3,12.1-55.9c5.2-23.2,16.5-44.2,24.7-66.3c3.2-8.6,4.9-19.6,10-27.3c1.4-2.1,4-3.2,5.1-4.9
				c3.7-5.8,3.6-7.4,4.6-14.5c4.5-32.8,24-15.5,45.4-8c9,3.2,51.8,23.7,35.5,37.4c19.5,5.7,50.7,2.6,50.4,30.5
				c-0.1,14.3-8.7,29.6-13.3,43c-4.1,11.9-8,23.8-12.2,35.7c-9.1,26-20.1,51.2-28.9,77.3c-4,11.9-7.4,24-13,35.3
				c-5,9.9-17,20.8-18.9,31.6c51.9-22.1,99.9-54.2,158.1-52.1c25.4,0.9,48.5,11.6,62.6,34c17.6,28,29.2,59.4,46.4,87.7
				c62.6,102.9,137.4,196.4,206.1,295.1c5.3,7.6,12.1,14.8,13.9,24.1c1.2,6.1-1.1,12.2,0.3,18.1c3,12.2,18,27.4,28.2,34.5
				c19.5,13.4,51.3,32.4,75.7,30.7c-15.3-36.8-15.1-77-14.4-116.3c0.7-37.3,4.7-74.2,9.5-111.1c1.1-8.3,2-16.1,4.4-24.2
				c2.8-9.3,6.5-8.4-1.7-16.7c-12.7-12.8-27.8-23.4-40.6-36.4c-27.7-28.1-56-50.1-77.8-83.7c-20.7-31.9-42.5-64.8-57.9-99.7
				c-15.8-36-22.1-74.4-29.9-112.5c-3.2-15.5-14.8-32.7-12.4-48.9c2.9-20.4,12.4-5.5,16.3,5.4c11.8,33.5,39.3,63.5,62.1,90.5
				c24.6,29.1,54.8,53.5,80.5,81.8c28,30.8,47.2,66.2,72.1,99.1c0-40.8-13.9-82.4-19.6-122.7c-5-35.5-6.6-71.2-9.8-106.9
				c-7.2-81.1-1-164.5,9.1-245c4.8-38.2,2.1-75.6,2.2-113.9c0-12.2-5-40.3,1.4-51.2c12.3-20.7,19.5,24.6,20.2,31.4
				c3.7,40.3-3,80.1,0.5,120.3c3.6,41.9,11.3,82.6,17.9,124c7.1,44.8,18.8,88.7,29.9,132.7c11.7,46.2,21.5,93.3,34.5,139.1
				c3.5-14.4-1.4-32.1-2.4-46.8c-1.4-21-4.1-42-4.3-63c-0.4-33.5-0.6-67.7,1.3-101.1c1.9-32.9,1.3-67.4,11.4-99.1
				c4.8-15,11.8-29.7,18.7-43.9c8.5-17.5,11.5-34.4,16.2-53c4-15.9,9.9-31.4,12.6-47.7c1.7-10.1,6.3-39.9,17.9-17.3
				c6.7,13.1,3.8,32.5,4,46.6c0.2,18.1-2.5,35.6-2.9,53.6c-0.8,35.3-1.4,70.5-4,105.7c-2.8,36.9-0.3,70.1,6.7,106.5
				c7.7,39.8,9.9,79.8,13.9,120.1c2.1,20.8,5.5,41.5,7.2,62.4c0.9,11-3.7,42.7,4.3,50.6c0.8-19.1,6.2-38.3,10.4-56.9
				c4.9-22.1,6.9-45.3,10.5-67.7c5.9-36.3,17.3-70.9,24.8-106.8c15.5-74,28.5-169,93.6-217.4c8.5-6.3,17.9-11,27.1-16.2
				c5.2-3,13-10.6,18.9-11.9c6.5-1.5,9.2-0.3,11.9,7.2c3.7,10.5-3.1,15.5-9.3,23.1c-21.8,26.5-31.1,60.4-44.5,91.5
				c-30.8,71.1-44.4,146.1-44.5,223c-0.1,40.2-2.9,79.1-7.2,119.1c-4.6,43.1-10.7,88.6-23.8,130c13.1,2.9,27.4-1.4,30.9,13.8
				c0.9,3.7-0.7,8.2,0.3,13.1c0.9,4.7,3.2,9.5,4.5,14.1c2.8,9.6,4.2,19.2,5.6,29.1c5.2,38.3,14.1,74.6,15.1,113.4
				c0.9,35.9-6.1,72.2-12.6,107.4c-6.5,35.4-25.2,65.6-39.9,97.6C1809.5,664.5,1815.9,664.5,1822.2,664.6L1822.2,664.6z"/>
			<path id="ink-layer_1_" class="st3" d="M989.4,583.2c-7,2-40.7,5.7-40.7,16.3c0,6.3,33.7,6.2,39.6,6.9
				C988.7,598.6,989,590.9,989.4,583.2 M1063.7,656.1c19.4,3.7,45.8-1.5,58.2-18.6c5.8-8,8.5-20.2,10.4-29.7
				c1.8-9.1,7.4-31.8,3.6-40.3c-4.6-10.5-49.3,0.5-62.2,1.7c-22.7,2.1-46.1,2.3-68.8,0.9c0,23.4-1.2,46.2,12.6,66.4
				C1027.4,650.9,1046.1,654.4,1063.7,656.1 M1059.8,685c-21.1-7.7-43.2-2.7-57-25.3c-3.5-5.7-6.4-11.9-8.5-18.3
				c-1-2.8-1.8-5.7-2.4-8.6c1.1-6.3-1.2-8.1-6.9-5.3c-11.2-2.2-23.4,5.5-35.2,3.2c-28.6-5.5-23.4-46.4-4.2-60.6
				c3.8-2.8,7.6-3.6,11.9-5c9.6-3,14.7,0.4,23.5-0.5c7.1-0.7,9-8.1,16.6-11.4c5-2.1,11.9-2,17.1-2.2c27.3-1.1,54.8-1.1,82.3-2.9
				c12.8-0.8,26.7,1.2,39.3-1c5.9-1,5-4.9,10.6-1.5c5.8,3.6,3.3,16.7,3,22c-1.7,30.3-3.5,62.9-19.7,89.4
				C1115.1,681.4,1085.9,683.8,1059.8,685"/>
			<path id="ink-layer_2_" class="st3" d="M-54.2,693.4c6.8-0.1,13.6-0.1,20.3-0.2C-40.7,693.3-47.5,693.3-54.2,693.4"/>
			<path id="ink-layer_3_" class="st3" d="M1830.3,46.5c0-6.5,0-13,0-19.5C1830.3,33.5,1830.3,40,1830.3,46.5"/>
			<path id="ink-layer_4_" class="st3" d="M103.9,73.2c0,6.3,0,12.7-0.1,19C103.8,85.9,103.9,79.6,103.9,73.2"/>
			<path id="ink-layer_5_" class="st3" d="M668,686.2c5.4,0,10.8,0,16.2,0C678.8,686.2,673.4,686.2,668,686.2"/>
			<path id="ink-layer_6_" class="st3" d="M340.2,684.9c5.4,0,10.8,0,16.2,0.1C350.9,684.9,345.6,684.9,340.2,684.9"/>
			<path id="ink-layer_7_" class="st3" d="M1520.7,421.2c-0.2,4.3-0.5,8.6-0.7,12.8C1520.2,429.8,1520.5,425.5,1520.7,421.2"/>
			<path id="ink-layer_8_" class="st3" d="M1822.2,664.6c-4.2,0-8.3-0.1-12.5-0.1C1813.9,662.7,1818,662.8,1822.2,664.6"/>
			<path id="ink-layer_9_" class="st3" d="M1451.7,683.6c3,0,6-0.1,9-0.1C1457.7,683.5,1454.7,683.5,1451.7,683.6"/>
			<path id="ink-layer_10_" class="st3" d="M1828.7,99.4c0.1-3.2,0.1-6.5,0.2-9.7C1828.9,92.9,1828.8,96.1,1828.7,99.4"/>
			<path id="ink-layer_11_" class="st3" d="M1548.6-310.4c-0.2-3.3-0.5-6.7-0.7-10C1548.1-317.1,1548.4-313.8,1548.6-310.4"/>
			<path id="ink-layer_12_" class="st3" d="M1830.2,59.2c0-3.3,0.1-6.7,0.1-10C1830.3,52.6,1830.2,55.9,1830.2,59.2"/>
			<path id="ink-layer_13_" class="st3" d="M888.4,679.4c2.7,0,5.3,0.1,8,0.1C893.7,679.5,891,679.5,888.4,679.4"/>
			<path id="ink-layer_14_" class="st3" d="M1574.3,684.9c2.6,0.1,5.2,0.1,7.8,0.2C1579.4,685,1576.9,684.9,1574.3,684.9"/>
			<path id="ink-layer_15_" class="st3" d="M1855.4,449.4c-0.2-2.9-0.4-5.9-0.6-8.8C1855.1,443.5,1855.2,446.5,1855.4,449.4"/>
			<path id="ink-layer_16_" class="st3" d="M1808.7,687.7c2.1,0,4.2,0,6.3,0C1812.9,687.7,1810.8,687.7,1808.7,687.7"/>
			<path id="ink-layer_17_" class="st3" d="M1520,685c2.1-0.1,4.2-0.1,6.3-0.2C1524.2,684.9,1522.1,685,1520,685"/>
			<path id="ink-layer_18_" class="st3" d="M1048.4,683.4c2.3,0,4.6,0,6.9,0C1053,683.4,1050.7,683.4,1048.4,683.4"/>
			<path id="ink-layer_19_" class="st3" d="M515.8,683.4c2.2,0,4.4,0,6.6,0.1C520.1,683.4,518,683.4,515.8,683.4"/>
			<path id="ink-layer_20_" class="st3" d="M386.2,683.8c2.2-0.1,4.5-0.3,6.7-0.4C390.7,683.5,388.4,683.6,386.2,683.8"/>
			<path id="ink-layer_21_" class="st3" d="M1006.5-169.2c-3.3-0.3-6.7-0.6-10-0.9C999.9-169.8,1003.4-171.8,1006.5-169.2"/>
			<path id="ink-layer_22_" class="st3" d="M1855.7,665.9c-3.3-0.3-6.6-0.7-9.9-1C1849.2,665.2,1852.5,665.5,1855.7,665.9"/>
			<path id="ink-layer_23_" class="st3" d="M1626.6-149c-0.2,2.9-0.4,5.8-0.7,8.6C1626.2-143.2,1626.4-146.1,1626.6-149"/>
			<path id="ink-layer_24_" class="st3" d="M1831-29c0.2-2.7,0.4-5.5,0.7-8.2C1831.5-34.4,1831.2-31.7,1831-29"/>
			<path id="ink-layer_25_" class="st3" d="M1625.3-104.3c-0.2,2.9-0.5,5.7-0.7,8.6C1624.8-98.6,1625.1-101.5,1625.3-104.3"/>
			<path id="ink-layer_26_" class="st3" d="M1829.6,81.1c0-2.8,0-5.6-0.1-8.3C1831.3,75.6,1831.3,78.3,1829.6,81.1"/>
			<path id="ink-layer_27_" class="st3" d="M1520.8,479.8c0,2.8,0,5.6-0.1,8.3C1518.8,485.4,1519.2,482.6,1520.8,479.8"/>
			<path id="ink-layer_28_" class="st3" d="M1730.1,157.9c-0.3-2.8-0.6-5.6-1-8.4C1729.5,152.3,1729.8,155.1,1730.1,157.9"/>
			<path id="ink-layer_29_" class="st3" d="M-3.6-100.6c-2.2,2.9-5.1,0.9-7.7,1.3C-8.7-99.8-6.1-100.2-3.6-100.6"/>
			<path id="ink-layer_30_" class="st3" d="M1073.4,550.2c-2.8,0-5.5,0-8.3,0C1067.9,550.2,1070.7,550.2,1073.4,550.2"/>
			<path id="ink-layer_31_" class="st3" d="M1513-88.8c0.3,2.3,0.5,4.7,0.8,7C1513.5-84.1,1513.3-86.5,1513-88.8"/>
			<path id="ink-layer_32_" class="st3" d="M153.2-321.2c-2.8,0.1-5.5,0.1-8.3,0.2C147.6-322.7,150.4-323.1,153.2-321.2"/>
			<path id="ink-layer_33_" class="st3" d="M1625.2-63.9c-0.2,2.5-0.4,4.9-0.5,7.3C1624.9-59,1625.1-61.4,1625.2-63.9"/>
			<path id="ink-layer_34_" class="st3" d="M1549.4-365.1c0.2-2.2,0.4-4.5,0.6-6.7C1549.8-369.5,1549.6-367.3,1549.4-365.1"/>
			<path id="ink-layer_35_" class="st3" d="M1527.6-372.1c-0.2,2.4-0.4,4.9-0.6,7.3C1527.2-367.2,1527.4-369.6,1527.6-372.1"/>
			<path id="ink-layer_36_" class="st3" d="M326.1-534.2c-2.8,0.3-5.6,0.7-8.4,1C320.4-533.5,323.3-533.8,326.1-534.2"/>
			<path id="ink-layer_37_" class="st3" d="M122.8-319.3c-2.9,0.3-5.8,0.6-8.7,0.9C117-318.7,119.9-319,122.8-319.3"/>
			<path id="ink-layer_38_" class="st3" d="M1705.6-312.2c0.2-2.3,0.4-4.5,0.5-6.8C1706-316.7,1705.8-314.4,1705.6-312.2"/>
			<path id="ink-layer_39_" class="st3" d="M28,60.4c1.7,0,3.3,0,5,0.1C31.2,60.5,29.6,60.5,28,60.4"/>
			<path id="ink-layer_40_" class="st3" d="M1527.7,339.1c-0.2,2.5-0.3,5-0.5,7.5C1527.4,344.1,1527.6,341.6,1527.7,339.1"/>
			<path id="ink-layer_41_" class="st3" d="M1697.4-147.4c-0.1-2.4-0.1-4.8-0.2-7.2C1697.3-152.2,1697.4-149.8,1697.4-147.4"/>
			<path id="ink-layer_42_" class="st3" d="M396.9-539.9c-2.6,0-5.1,0-7.7,0C391.8-541.6,394.4-541.6,396.9-539.9"/>
			<path id="ink-layer_43_" class="st3" d="M1082,27.3c-2.8,0.1-5.6,0.1-8.4,0.2C1076.3,25.5,1079.1,25.5,1082,27.3"/>
			<path id="ink-layer_44_" class="st3" d="M1327.6,679.3c1.7,0,3.3,0.1,5,0.1C1330.9,679.4,1329.2,679.4,1327.6,679.3"/>
			<path id="ink-layer_45_" class="st3" d="M1390.3,682.3c1.7-0.1,3.3-0.1,5-0.2C1393.6,682.1,1392,682.2,1390.3,682.3"/>
			<path id="ink-layer_46_" class="st3" d="M408.4,683.4c1.7,0,3.5,0.1,5.2,0.1C411.9,683.5,410.2,683.5,408.4,683.4"/>
			<path id="ink-layer_47_" class="st3" d="M1854,421.5c-0.2-2.4-0.5-4.8-0.7-7.1C1853.5,416.8,1853.7,419.1,1854,421.5"/>
			<path id="ink-layer_48_" class="st3" d="M1627.4,19.9c0.2,2.3,0.4,4.5,0.6,6.8C1627.8,24.5,1627.6,22.2,1627.4,19.9"/>
			<path id="ink-layer_49_" class="st3" d="M1714.6-19c-0.3-2.4-0.5-4.8-0.8-7.2C1714-23.8,1714.3-21.4,1714.6-19"/>
			<path id="ink-layer_50_" class="st3" d="M422.5,684.8c1.7,0,3.5-0.1,5.2-0.1C426,684.8,424.3,684.8,422.5,684.8"/>
			<path id="ink-layer_51_" class="st3" d="M1059.8,685c1.7-0.1,3.4-0.2,5.1-0.2C1063.2,684.9,1061.5,685,1059.8,685"/>
			<path id="ink-layer_52_" class="st3" d="M1700.3-194.8c-0.1-2.4-0.2-4.9-0.2-7.3C1700.2-199.7,1700.3-197.3,1700.3-194.8"/>
			<path id="ink-layer_53_" class="st3" d="M256.6,686.4c1.7,0,3.4,0,5.1,0C260,686.4,258.3,686.4,256.6,686.4"/>
			<path id="ink-layer_54_" class="st3" d="M1699.6,686.4c1.8,0,3.5,0,5.2,0.1C1703.1,686.5,1701.4,686.4,1699.6,686.4"/>
			<path id="ink-layer_55_" class="st3" d="M1737.5,686.2c1.7,0.1,3.4,0.2,5.1,0.4C1740.9,686.4,1739.2,686.3,1737.5,686.2"/>
			<path id="ink-layer_56_" class="st3" d="M1752.8,686.2c1.7,0.1,3.5,0.1,5.2,0.1C1756.3,686.3,1754.6,686.2,1752.8,686.2"/>
			<path id="ink-layer_57_" class="st3" d="M1831.4-9.4c-0.1-2.4-0.2-4.8-0.3-7.2C1831.2-14.2,1831.3-11.8,1831.4-9.4"/>
			<path id="ink-layer_58_" class="st3" d="M673.2,654.7c5.2-0.3,10.5-0.5,15.7-0.8C683.7,654.2,678.4,654.5,673.2,654.7"/>
			<path id="ink-layer_59_" class="st3" d="M356.5-217.6c4.6,0.4,9.1,0.8,13.7,1.2C365.6-216.8,361.1-217.2,356.5-217.6"/>
			<path id="ink-layer_60_" class="st3" d="M1643-19.5c0.1,4.3,0.3,8.7,0.4,13C1643.3-10.8,1643.1-15.2,1643-19.5"/>
			<path id="ink-layer_61_" class="st3" d="M1737,662.2c4.8,0.3,9.5,0.6,14.3,0.9C1746.5,663.2,1741.6,664.6,1737,662.2"/>
			<path id="ink-layer_62_" class="st3" d="M1708.9,148c0-4.1,0.1-8.3,0.1-12.4C1708.9,139.7,1708.9,143.9,1708.9,148"/>
			<path id="ink-layer_63_" class="st3" d="M1696.7,278.3c4.2,0.1,8.3,0.1,12.5,0.2C1705,278.4,1700.9,278.3,1696.7,278.3"/>
			<path id="ink-layer_64_" class="st3" d="M646.1,205.4c-0.1,3.2-0.2,6.3-0.3,9.5C645.9,211.7,646,208.5,646.1,205.4"/>
			<path id="ink-layer_65_" class="st3" d="M1766.2,71.6c-0.2,3.1-0.3,6.3-0.5,9.4C1765.8,77.8,1766,74.7,1766.2,71.6"/>
			<path id="ink-layer_66_" class="st3" d="M1677.1,648.2c3-0.2,6.1-0.4,9.1-0.6C1683.9,649.4,1681.6,649.5,1677.1,648.2"/>
			<path id="ink-layer_67_" class="st3" d="M1656.8,237.1c0.2,3.4,0.4,6.8,0.6,10.2C1657.2,243.9,1657,240.5,1656.8,237.1"/>
			<path id="ink-layer_68_" class="st3" d="M521.6-297.9c0-3.3,0.1-6.5,0.1-9.8C521.7-304.5,521.6-301.2,521.6-297.9"/>
			<path id="ink-layer_69_" class="st3" d="M1660.5,279l11.3-0.2C1668.1,280.5,1664.3,280.6,1660.5,279"/>
			<path id="ink-layer_70_" class="st3" d="M1764.9,303.1c-2.7,0-5.3,0-8,0.1C1759.6,303.2,1762.2,303.1,1764.9,303.1"/>
			<path id="ink-layer_71_" class="st3" d="M787.7,649.5c3.7,0,7.4,0.1,11.1,0.1C795,651.5,791.3,651.7,787.7,649.5"/>
			<path id="ink-layer_72_" class="st3" d="M91.8,660.4c3.7-0.3,7.5-0.7,11.2-1C99.3,659.7,95.6,660,91.8,660.4"/>
			<path id="ink-layer_73_" class="st3" d="M1644.3,8.4c0.2,3.4,0.4,6.8,0.6,10.2C1644.7,15.2,1644.5,11.8,1644.3,8.4"/>
			<path id="ink-layer_74_" class="st3" d="M447.7-209.6c3.2-1.6,6.3-1.8,9.6-0.2C454-209.7,450.9-209.6,447.7-209.6"/>
			<path id="ink-layer_75_" class="st3" d="M1540.9,47.7c0.3,2.9,0.5,5.7,0.8,8.6C1541.4,53.4,1541.2,50.5,1540.9,47.7"/>
			<path id="ink-layer_76_" class="st3" d="M1807.9-19.3c-1.6-2.8-1.6-5.6,0.1-8.4C1807.9-24.9,1807.9-22.1,1807.9-19.3"/>
			<path id="ink-layer_77_" class="st3" d="M1644.8-116.8c0,2.8,0,5.7,0,8.5C1644.8-111.1,1644.8-113.9,1644.8-116.8"/>
			<path id="ink-layer_78_" class="st3" d="M1758.1,276.9c3.3-1,6.5-2.4,9.7,0C1764.6,276.9,1761.4,276.9,1758.1,276.9"/>
			<path id="ink-layer_79_" class="st3" d="M706.8,653.4c3.3-0.3,6.5-0.6,9.8-0.9C713.4,652.8,710.1,653.1,706.8,653.4"/>
			<path id="ink-layer_80_" class="st3" d="M258.1,653.4c3-1.3,6-2,8.9,0.1C264,653.5,261,653.5,258.1,653.4"/>
			<path id="ink-layer_81_" class="st3" d="M871.3,649.2c3.2-1.4,6.4-2.2,9.6,0.1C877.7,649.3,874.5,649.3,871.3,649.2"/>
			<path id="ink-layer_82_" class="st3" d="M157.6,234.5c0.2,2.9,0.5,5.8,0.7,8.7C158.1,240.3,157.9,237.4,157.6,234.5"/>
			<path id="ink-layer_83_" class="st3" d="M902,67.8c3.2-1.1,6.3-1.7,9.4,0.2C908.2,67.9,905.1,67.9,902,67.8"/>
			<path id="ink-layer_84_" class="st3" d="M1644.2,154c0.2,2.8,0.3,5.7,0.5,8.5C1644.6,159.6,1644.4,156.8,1644.2,154"/>
			<path id="ink-layer_85_" class="st3" d="M155.6-101.3c-0.3,2.3-0.5,4.6-0.8,6.8C155.1-96.8,155.3-99,155.6-101.3"/>
			<path id="ink-layer_86_" class="st3" d="M-27.2,559.5c-0.2,2.2-0.3,4.4-0.5,6.6C-27.5,564-27.4,561.8-27.2,559.5"/>
			<path id="ink-layer_87_" class="st3" d="M1710.3,168.9c-0.2-2.3-0.4-4.6-0.5-6.9C1709.9,164.4,1710.1,166.6,1710.3,168.9"/>
			<path id="ink-layer_88_" class="st3" d="M1480.6,644.9c2.8,0,5.6,0,8.4,0.1C1486.2,645,1483.4,645,1480.6,644.9"/>
			<path id="ink-layer_89_" class="st3" d="M645,224.9c0.5,1.7,1.1,3.3,1.6,5C643.1,230.8,642.6,229.1,645,224.9"/>
			<path id="ink-layer_90_" class="st3" d="M855.8,64c2.9,0,5.7,0,8.6,0C861.5,65.3,858.6,66.3,855.8,64"/>
			<path id="ink-layer_91_" class="st3" d="M159.2,248.2c0.1,2.5,0.2,5.1,0.3,7.6C159.4,253.3,159.3,250.7,159.2,248.2"/>
			<path id="ink-layer_92_" class="st3" d="M189.4,656.2c2.8,0,5.5,0,8.3,0C195,656.2,192.2,656.2,189.4,656.2"/>
			<path id="ink-layer_93_" class="st3" d="M1547.8,274.9c0.1,2.3,0.2,4.7,0.3,7C1548,279.5,1547.9,277.2,1547.8,274.9"/>
			<path id="ink-layer_94_" class="st3" d="M130.9,659.1c2.7-1.8,5.4-1.6,8.1,0C136.4,659,133.7,659,130.9,659.1"/>
			<path id="ink-layer_95_" class="st3" d="M202.3-133.9c0.1,2.4,0.3,4.8,0.4,7.1C202.6-129.1,202.4-131.5,202.3-133.9"/>
			<path id="ink-layer_96_" class="st3" d="M116.9,659.3c2.8,0,5.6,0,8.4,0C122.5,661.3,119.7,661.4,116.9,659.3"/>
			<path id="ink-layer_97_" class="st3" d="M1676.6-171.2c0-2.4,0-4.8,0.1-7.2C1676.7-176,1676.7-173.6,1676.6-171.2"/>
			<path id="ink-layer_98_" class="st3" d="M383.4-213.4c2.7,0.4,5.4,0.7,8.1,1.1C388.8-212.7,386.1-213.1,383.4-213.4"/>
			<path id="ink-layer_99_" class="st3" d="M145.7-4.9c0,2.3,0.1,4.5,0.1,6.8C145.7-0.4,145.7-2.7,145.7-4.9"/>
			<path id="ink-layer_100_" class="st3" d="M1694.8-5.3c-0.1-2.3-0.3-4.6-0.4-6.9C1694.5-9.8,1694.6-7.6,1694.8-5.3"/>
			<path id="ink-layer_101_" class="st3" d="M1066.3,656.6c3.3,0.3,6.6,0.6,10,0.9C1073,657.2,1069.6,656.9,1066.3,656.6"/>
			<path id="ink-layer_102_" class="st3" d="M1055.2,570.6c-1.8,0-3.6,0.1-5.4,0.1C1051.6,570.6,1053.4,570.6,1055.2,570.6"/>
			<path id="ink-layer_103_" class="st3" d="M1055.4,655.3c2.8,0.3,5.6,0.6,8.4,0.8C1060.9,655.8,1058.2,655.6,1055.4,655.3"/>
			<path id="ink-layer_104_" class="st3" d="M553.5,467.5c3.6,20.5-28.2,40.5-30.8,11.4c-0.9-10.7,6.2-18.1,14.2-24.7
				C548.3,445,554.6,453.9,553.5,467.5"/>
			<path id="ink-layer_105_" class="st3" d="M202.3,217.4c7.5,3.1,64.9,21.8,35.1,31.2c-7.9,2.5-19.8,2.9-26.6-1.5
				C202.5,241.8,194.2,226.2,202.3,217.4"/>
			<path id="ink-layer_106_" class="st3" d="M216.4-60.2c19.5-2.3,37.4,29.7,13.4,28.7C212.3-32.2,188.9-60.2,216.4-60.2"/>
			<path id="ink-layer_107_" class="st3" d="M286,18.2c16.3,14.2-13.9,45.9-25.8,33.6c-6.1-6.3-0.5-19.8,4.6-25
				C270,21.4,279.2,20.4,286,18.2"/>
			<path id="ink-layer_108_" class="st3" d="M334.4,385.8c-9.6,1.5-51.8,15.3-43-9.7c3.4-9.5,12.7-6.7,21.3-6.3
				C326.5,370.5,334.4,369.8,334.4,385.8"/>
			<path id="ink-layer_109_" class="st3" d="M306.6,450.3c14.4,7.7-6.6,50.7-18.5,41.5C271.6,479.1,294.2,454.2,306.6,450.3"/>
			<path id="ink-layer_110_" class="st3" d="M369.3,415.7c7-2.9,39.9,28.8,27.4,37.6c-6.4,4.5-18.6-3.2-22.5-7.9
				C366.9,436.7,366.3,425.9,369.3,415.7"/>
			<path id="ink-layer_111_" class="st3" d="M179.3,156.9c7.1,1.2,19.5,1.5,19.9,11.6c0.4,8.8-10.6,11.7-18.4,12.4
				c-8.1,0.7-18.8-1.6-18.9-11.7C161.7,158.2,179.1,158.8,179.3,156.9"/>
			<path id="ink-layer_112_" class="st3" d="M355.4,593.4c7.6,4.6,43.1,21.2,27.9,33.2c-5.7,4.5-22.9-4.8-26.8-9.5
				C351.8,611.5,347.3,598.3,355.4,593.4"/>
			<path id="ink-layer_113_" class="st3" d="M454,472.8c-1.1-18.3,29.8-25.6,23.4,0.4c-1.8,7.3-3.6,18.5-12.6,18.9
				C454,492.6,453.6,479.9,454,472.8"/>
			<path id="ink-layer_114_" class="st3" d="M358.4,153.9c0.2,13.9-26.4,26.2-26.7,4.1C331.5,138.3,359.3,132.5,358.4,153.9"/>
			<path id="ink-layer_115_" class="st3" d="M340.7,81.4c6.6,2.1,15.3,3.2,15.9,11.6c0.6,8.8-7.6,12.8-15,12.3
				c-6.1-0.4-15-4.9-16.1-11.5C323.9,84.1,333.3,83.5,340.7,81.4"/>
			<path id="ink-layer_116_" class="st3" d="M218.6,336.1c-0.1-11.5,22.9-25.3,27.1-12c1.4,4.3-9.5,23.4-13.1,24.8
				C223.1,352.8,221.7,343.9,218.6,336.1"/>
			<path id="ink-layer_117_" class="st3" d="M407.1,527.2c-7.8,7-31.1,26.5-29.4,0.3C378.9,510.7,409.2,511.6,407.1,527.2"/>
			<path id="ink-layer_118_" class="st3" d="M787.2,602.2c2.5-11,39,8.1,26.9,22c-4.1,4.7-14.8,0.4-18.9-2.3
				C787,616.4,786.8,611.4,787.2,602.2"/>
			<path id="ink-layer_119_" class="st3" d="M583.8,366c1.4-4.9,3-13.6,7.7-16.8c8.5-5.7,15.9,2.9,15.9,11.9
				C607.4,378,588.3,383.3,583.8,366"/>
			<path id="ink-layer_120_" class="st3" d="M493.4,563c9.5,2.2,30.6,25.2,18.3,34.6C500,606.6,484.3,569.8,493.4,563"/>
			<path id="ink-layer_121_" class="st3" d="M502.4,388.6c12.2,1,28.9,20.7,10,23.8C497.6,414.9,480.4,393.5,502.4,388.6"/>
			<path id="ink-layer_122_" class="st3" d="M612.7,479.4c3.1-10.3,33.3,0.7,31.6,12.1c-0.9,6-13.3,7.4-19.7,5.8
				C615,495,612.5,488.7,612.7,479.4"/>
			<path id="ink-layer_123_" class="st3" d="M256.6-95.3c0.2-13.3,25.8-18.7,27.7-5.3C285.9-88.5,256.2-75.6,256.6-95.3"/>
			<path id="ink-layer_124_" class="st3" d="M604.3,616.5c1.8-6.7,2.6-14.7,11-15.6c9.6-1,9.3,6.3,8.2,13.9
				C620.4,635.5,608.7,636.5,604.3,616.5"/>
			<path id="ink-layer_125_" class="st3" d="M200.6,63c-13.3,3-37.7-22.7-22.8-28.2C188.2,31,200.6,55.3,200.6,63"/>
			<path id="ink-layer_126_" class="st3" d="M370.5,262.4c-6.8,3.2-8.3,5.1-13.6-0.1c-4.5-4.6-4.3-17.3-0.4-22
				C371.5,222,371.1,255,370.5,262.4"/>
			<path id="ink-layer_127_" class="st3" d="M425.9,225.5c7.1,0.9,28.1,20.8,17.1,28.8C429.6,263.9,422,233.5,425.9,225.5"/>
			<path id="ink-layer_128_" class="st3" d="M578.9,230.7c-5.1,19.8-18,6.5-17.2-8.5C562.8,198.2,576.1,219.1,578.9,230.7"/>
			<path id="ink-layer_129_" class="st3" d="M657,548.7c8.7,3.6,20.5,36.8,8.1,38.6C651.1,589.3,655.7,555.6,657,548.7"/>
			<path id="ink-layer_130_" class="st3" d="M548.3,530c10-3.4,13.6,17.6,7.8,21.5C543.4,560.1,546.1,535,548.3,530"/>
			<path id="ink-layer_131_" class="st3" d="M454,472.8c-0.1,2.8-0.3,5.6-0.4,8.3C453.7,478.4,453.8,475.6,454,472.8"/>
			<path id="ink-layer_132_" class="st3" d="M787.2,602.2c-0.1,2.9-0.2,5.7-0.3,8.6C787,607.9,787.1,605.1,787.2,602.2"/>
			<path id="ink-layer_133_" class="st3" d="M612.7,479.4c-0.1,2.4-0.1,4.8-0.2,7.3C612.6,484.2,612.7,481.8,612.7,479.4"/>
			<path id="ink-layer_134_" class="st3" d="M1713.7,437.7c20.6-0.7,43.7-8.4,63.9-6c5.6,0.7,18.4,2.1,9.5,10.4
				c-4.3,4-24.8,1.9-31,3.2c-37.9,8-80.9,13.2-119.8,12.5c-18.2-0.3-36.5-1.8-54.7-2.7c-18.2-1-20-8.3,0.5-10.7
				c21.2-2.4,43-1.5,64.3-1.6C1669,442.8,1691.3,439.2,1713.7,437.7"/>
			<path id="ink-layer_135_" class="st3" d="M1759,388c-2,5.7-3.7,18.6-11.3,19.5c-10.7,1.2-12.4-17.1-12-23.8
				c0.5-8.1,3.4-21.5,13.4-18.7C1757.6,367.3,1758.4,381.5,1759,388"/>
			<path id="ink-layer_136_" class="st3" d="M1694.5,383.8c1.6-6.1,2.3-19.7,10.9-20.2c9.6-0.5,12.3,13.7,12.2,20.5
				c-0.1,6.5-2.5,18.7-10.1,20.2C1697.2,406.4,1696.3,390.8,1694.5,383.8"/>
			<path id="ink-layer_137_" class="st3" d="M1587,394.7c-3.1,7.3-5.2,17.3-14.8,12.3c-7.4-3.8-8.5-19.3-7.1-26.4
				c1.5-7.3,4.5-15.8,13-12.5C1587.9,372,1586.9,386.7,1587,394.7"/>
			<path id="ink-layer_138_" class="st3" d="M1668.4,388c-9.1,27.7-25.8,9-19.5-11.7C1655.5,354.6,1667.6,375.6,1668.4,388"/>
			<path id="ink-layer_139_" class="st3" d="M1623.8,389.4c-2.5,4.9-5.2,15.4-12.1,14.3c-8.4-1.4-8.7-17.5-7.7-23.5
				c0.8-5.3,3.2-14,10.2-13.9C1624.4,366.4,1623.7,383,1623.8,389.4"/>
			<path id="ink-layer_140_" class="st3" d="M1806.3,394.7c-6.8,15.3-16.2,2.1-13.2-8.7C1797.6,369.9,1805.9,384.1,1806.3,394.7"/>
			<path id="ink-layer_141_" class="st3" d="M1639.5,442.9c-7.4,0-14.9-0.1-22.3-0.1C1624.7,441.4,1632.1,440.9,1639.5,442.9"/>
			<path id="ink-layer_142_" class="st3" d="M1787.3,431.7c-6.5,0-12.9,0.1-19.3,0.1C1774.4,429.9,1780.9,429.8,1787.3,431.7"/>
			<path id="ink-layer_143_" class="st3" d="M1713.7,437.7c-5.2,0.3-10.3,0.7-15.5,1C1703.4,438.4,1708.6,438,1713.7,437.7"/>
			<path id="ink-layer_144_" class="st3" d="M1587,394.7c0-3.7-0.1-7.4-0.1-11.1C1588.8,387.3,1588.7,391,1587,394.7"/>
			<path id="ink-layer_145_" class="st3" d="M1627.5,457.8c3,0,6,0.1,9,0.1C1633.4,457.8,1630.5,457.8,1627.5,457.8"/>
			<path id="ink-layer_146_" class="st3" d="M1577.2,455.1c3,0,6.1,0,9.1,0C1583.2,455.1,1580.2,455.1,1577.2,455.1"/>
			<path id="ink-layer_147_" class="st3" d="M1602.1,443.2c-4.2,0.3-8.4,0.7-12.6,1C1593.6,443.9,1597.9,443.6,1602.1,443.2"/>
			<path id="ink-layer_148_" class="st3" d="M1659.1,442.8c-4.2,0-8.3,0-12.5,0C1650.8,441.1,1654.9,441.1,1659.1,442.8"/>
			<path id="ink-layer_149_" class="st3" d="M1623.8,389.4c-0.1-3.9-0.2-7.7-0.3-11.6C1623.6,381.6,1623.7,385.5,1623.8,389.4"/>
			<path id="ink-layer_150_" class="st3" d="M1565.2,380.6c0,3.8,0,7.5-0.1,11.3C1565.2,388.2,1565.2,384.4,1565.2,380.6"/>
			<path id="ink-layer_151_" class="st3" d="M1737.4,436.3c-3.7,0.3-7.4,0.7-11,1C1730,437,1733.7,436.6,1737.4,436.3"/>
			<path id="ink-layer_152_" class="st3" d="M1806.3,394.7c-0.1-3.3-0.2-6.6-0.4-9.9C1806.1,388.1,1806.2,391.4,1806.3,394.7"/>
			<path id="ink-layer_153_" class="st3" d="M1649.7,457.9c2.6,0,5.1-0.1,7.7-0.1C1654.8,457.8,1652.3,457.8,1649.7,457.9"/>
			<path id="ink-layer_154_" class="st3" d="M1759,388c-0.2-2.4-0.5-4.7-0.7-7.1C1758.6,383.3,1758.8,385.6,1759,388"/>
			<path id="ink-layer_155_" class="st3" d="M1668.4,388c-0.2-2.4-0.3-4.9-0.5-7.3C1668.1,383.1,1668.2,385.6,1668.4,388"/>
			<path id="ink-layer_156_" class="st3" d="M347.2-325.7c-10.1-2.6-12-16.8-10.3-25.5c1.8-4.2,3.7-8.4,5.5-12.6
				c-0.7-1.5-1.4-3.1-2.2-4.6c0.9-8.6-1.4-12.4,8.5-8.9C367.1-370.8,370.1-326.3,347.2-325.7"/>
			<path id="ink-layer_157_" class="st3" d="M496.3-353c8.3-0.7,23.4,9,15.1,18.4c-5.1,5.8-22,3.1-28.9,4.3
				c-9.1,1.6-18.6,3.8-13.7-9.9C472.8-351,486.6-353.3,496.3-353"/>
			<path id="ink-layer_158_" class="st3" d="M487.6-288.7c-8.4-6.8-4.7-37.6,8.2-32C509-315,494.6-293.2,487.6-288.7"/>
			<path id="ink-layer_159_" class="st3" d="M336.8-351.2c0,3.2,0,6.5,0,9.7C335.1-344.7,335.1-347.9,336.8-351.2"/>
			<path id="ink-layer_160_" class="st3" d="M347.2-325.7c1.7,0,3.4-0.1,5.1-0.1C350.6-325.7,348.9-325.7,347.2-325.7"/>
			<path id="ink-layer_161_" class="st3" d="M1388.3,561.1c-0.8,14-15.8,3.7-14.8-5.7C1375.5,538.4,1385.1,555.2,1388.3,561.1"/>
		</g>
	</g>
</g>
</svg>
